{
    "asset" : {
        "generator" : "Khronos glTF Blender I/O v3.3.32",
        "version" : "2.0"
    },
    "scene" : 0,
    "scenes" : [
        {
            "name" : "Scene",
            "nodes" : [
                2,
                6
            ]
        }
    ],
    "nodes" : [
        {
            "name" : "defaultobject"
        },
        {
            "children" : [
                0
            ],
            "name" : "Collada visual scene group",
            "rotation" : [
                0.7071068286895752,
                0,
                0,
                0.7071067094802856
            ]
        },
        {
            "children" : [
                1
            ],
            "name" : "Sketchfab_model",
            "rotation" : [
                -0.7071068286895752,
                0,
                0,
                0.7071067094802856
            ],
            "translation" : [
                0,
                0.5768210291862488,
                0
            ]
        },
        {
            "mesh" : 0,
            "name" : "defaultMaterial"
        },
        {
            "children" : [
                3
            ],
            "name" : "defaultobject.001"
        },
        {
            "children" : [
                4
            ],
            "name" : "Collada visual scene group.001",
            "rotation" : [
                0.7071068286895752,
                0,
                0,
                0.7071067094802856
            ]
        },
        {
            "children" : [
                5
            ],
            "name" : "Sketchfab_model.001",
            "rotation" : [
                -0.7071068286895752,
                0,
                0,
                0.7071067094802856
            ],
            "translation" : [
                0,
                0.5768210291862488,
                0
            ]
        }
    ],
    "materials" : [
        {
            "doubleSided" : true,
            "emissiveFactor" : [
                1,
                1,
                1
            ],
            "emissiveTexture" : {
                "index" : 0
            },
            "name" : "DefaultMaterial.001",
            "normalTexture" : {
                "index" : 1
            },
            "occlusionTexture" : {
                "index" : 2
            },
            "pbrMetallicRoughness" : {
                "baseColorTexture" : {
                    "index" : 3
                },
                "metallicRoughnessTexture" : {
                    "index" : 2
                }
            }
        }
    ],
    "meshes" : [
        {
            "name" : "defaultMaterial.002",
            "primitives" : [
                {
                    "attributes" : {
                        "POSITION" : 0,
                        "NORMAL" : 1,
                        "TANGENT" : 2,
                        "TEXCOORD_0" : 3
                    },
                    "indices" : 4,
                    "material" : 0
                }
            ]
        }
    ],
    "textures" : [
        {
            "sampler" : 0,
            "source" : 0
        },
        {
            "sampler" : 0,
            "source" : 1
        },
        {
            "sampler" : 0,
            "source" : 2
        },
        {
            "sampler" : 0,
            "source" : 3
        }
    ],
    "images" : [
        {
            "bufferView" : 5,
            "mimeType" : "image/jpeg",
            "name" : "DefaultMaterial_emissive"
        },
        {
            "bufferView" : 6,
            "mimeType" : "image/png",
            "name" : "DefaultMaterial_normal"
        },
        {
            "bufferView" : 7,
            "mimeType" : "image/png",
            "name" : "DefaultMaterial_metallicRoughness"
        },
        {
            "bufferView" : 8,
            "mimeType" : "image/jpeg",
            "name" : "DefaultMaterial_baseColor"
        }
    ],
    "accessors" : [
        {
            "bufferView" : 0,
            "componentType" : 5126,
            "count" : 950,
            "max" : [
                1,
                0.5631510019302368,
                0.1853179931640625
            ],
            "min" : [
                -1,
                -0.5631510019302368,
                -0.1853179931640625
            ],
            "type" : "VEC3"
        },
        {
            "bufferView" : 1,
            "componentType" : 5126,
            "count" : 950,
            "type" : "VEC3"
        },
        {
            "bufferView" : 2,
            "componentType" : 5126,
            "count" : 950,
            "type" : "VEC4"
        },
        {
            "bufferView" : 3,
            "componentType" : 5126,
            "count" : 950,
            "type" : "VEC2"
        },
        {
            "bufferView" : 4,
            "componentType" : 5123,
            "count" : 3420,
            "type" : "SCALAR"
        }
    ],
    "bufferViews" : [
        {
            "buffer" : 0,
            "byteLength" : 11400,
            "byteOffset" : 0,
            "target" : 34962
        },
        {
            "buffer" : 0,
            "byteLength" : 11400,
            "byteOffset" : 11400,
            "target" : 34962
        },
        {
            "buffer" : 0,
            "byteLength" : 15200,
            "byteOffset" : 22800,
            "target" : 34962
        },
        {
            "buffer" : 0,
            "byteLength" : 7600,
            "byteOffset" : 38000,
            "target" : 34962
        },
        {
            "buffer" : 0,
            "byteLength" : 6840,
            "byteOffset" : 45600,
            "target" : 34963
        },
        {
            "buffer" : 0,
            "byteLength" : 125672,
            "byteOffset" : 52440
        },
        {
            "buffer" : 0,
            "byteLength" : 610272,
            "byteOffset" : 178112
        },
        {
            "buffer" : 0,
            "byteLength" : 986924,
            "byteOffset" : 788384
        },
        {
            "buffer" : 0,
            "byteLength" : 812694,
            "byteOffset" : 1775308
        }
    ],
    "samplers" : [
        {
            "magFilter" : 9729,
            "minFilter" : 9987
        }
    ],
    "buffers" : [
        {
            "byteLength" : 2588004,
            "uri" : "data:application/octet-stream;base64,"
        }
    ]
}
