{
    "asset" : {
        "generator" : "Khronos glTF Blender I/O v3.3.32",
        "version" : "2.0"
    },
    "scene" : 0,
    "scenes" : [
        {
            "name" : "Scene",
            "nodes" : [
                0,
                1,
                2,
                3,
                4,
                5
            ]
        }
    ],
    "nodes" : [
        {
            "mesh" : 0,
            "name" : "monas_0",
            "rotation" : [
                -0.7071068286895752,
                0,
                0,
                0.7071067094802856
            ],
            "scale" : [
                0.011600318364799023,
                0.011600319296121597,
                0.013062216341495514
            ],
            "translation" : [
                0,
                -0.013653946109116077,
                0
            ]
        },
        {
            "name" : "monas_1",
            "rotation" : [
                -0.7071068286895752,
                0,
                0,
                0.7071067094802856
            ],
            "scale" : [
                0.011600318364799023,
                0.011600319296121597,
                0.013062216341495514
            ]
        },
        {
            "mesh" : 1,
            "name" : "monas_2",
            "rotation" : [
                -0.7071068286895752,
                0,
                0,
                0.7071067094802856
            ],
            "scale" : [
                0.011600318364799023,
                0.011600319296121597,
                0.013062216341495514
            ]
        },
        {
            "mesh" : 2,
            "name" : "monas_1.002",
            "rotation" : [
                -0.7071068286895752,
                0,
                0,
                0.7071067094802856
            ],
            "scale" : [
                0.011600318364799023,
                0.011600319296121597,
                0.013062216341495514
            ]
        },
        {
            "mesh" : 3,
            "name" : "monas_1.003",
            "rotation" : [
                -0.7071068286895752,
                0,
                0,
                0.7071067094802856
            ],
            "scale" : [
                0.011600318364799023,
                0.011600319296121597,
                0.013062216341495514
            ]
        },
        {
            "mesh" : 4,
            "name" : "Plane",
            "scale" : [
                0.3488192558288574,
                0.3488192558288574,
                0.3488192558288574
            ]
        }
    ],
    "materials" : [
        {
            "doubleSided" : true,
            "name" : "emas",
            "pbrMetallicRoughness" : {}
        },
        {
            "doubleSided" : true,
            "name" : "tembok_bawah",
            "pbrMetallicRoughness" : {}
        },
        {
            "doubleSided" : true,
            "name" : "tembok",
            "pbrMetallicRoughness" : {}
        }
    ],
    "meshes" : [
        {
            "name" : "monas_0",
            "primitives" : [
                {
                    "attributes" : {
                        "POSITION" : 0,
                        "NORMAL" : 1
                    },
                    "indices" : 2,
                    "material" : 0
                }
            ]
        },
        {
            "name" : "monas_2",
            "primitives" : [
                {
                    "attributes" : {
                        "POSITION" : 3,
                        "NORMAL" : 4
                    },
                    "indices" : 5,
                    "material" : 1
                }
            ]
        },
        {
            "name" : "monas_1.002",
            "primitives" : [
                {
                    "attributes" : {
                        "POSITION" : 6,
                        "NORMAL" : 7
                    },
                    "indices" : 8,
                    "material" : 2
                }
            ]
        },
        {
            "name" : "monas_1.003",
            "primitives" : [
                {
                    "attributes" : {
                        "POSITION" : 9,
                        "NORMAL" : 10
                    },
                    "indices" : 11,
                    "material" : 2
                }
            ]
        },
        {
            "name" : "Plane",
            "primitives" : [
                {
                    "attributes" : {
                        "POSITION" : 12,
                        "NORMAL" : 13,
                        "TANGENT" : 14,
                        "TEXCOORD_0" : 15
                    },
                    "indices" : 16
                }
            ]
        }
    ],
    "accessors" : [
        {
            "bufferView" : 0,
            "componentType" : 5126,
            "count" : 14256,
            "max" : [
                4.707970142364502,
                4.707970142364502,
                106.7912826538086
            ],
            "min" : [
                -4.707970142364502,
                -4.707970142364502,
                92.08439636230469
            ],
            "type" : "VEC3"
        },
        {
            "bufferView" : 1,
            "componentType" : 5126,
            "count" : 14256,
            "type" : "VEC3"
        },
        {
            "bufferView" : 2,
            "componentType" : 5123,
            "count" : 20736,
            "type" : "SCALAR"
        },
        {
            "bufferView" : 3,
            "componentType" : 5126,
            "count" : 1719,
            "max" : [
                22.87397003173828,
                22.87397003173828,
                21.990549087524414
            ],
            "min" : [
                -22.87397003173828,
                -22.87397003173828,
                10.084039688110352
            ],
            "type" : "VEC3"
        },
        {
            "bufferView" : 4,
            "componentType" : 5126,
            "count" : 1719,
            "type" : "VEC3"
        },
        {
            "bufferView" : 5,
            "componentType" : 5123,
            "count" : 1920,
            "type" : "SCALAR"
        },
        {
            "bufferView" : 6,
            "componentType" : 5126,
            "count" : 988,
            "max" : [
                23.203569412231445,
                23.203569412231445,
                91.28888702392578
            ],
            "min" : [
                -23.203569412231445,
                -23.20355987548828,
                21.990549087524414
            ],
            "type" : "VEC3"
        },
        {
            "bufferView" : 7,
            "componentType" : 5126,
            "count" : 988,
            "type" : "VEC3"
        },
        {
            "bufferView" : 8,
            "componentType" : 5123,
            "count" : 1440,
            "type" : "SCALAR"
        },
        {
            "bufferView" : 9,
            "componentType" : 5126,
            "count" : 2282,
            "max" : [
                22.743480682373047,
                22.746110916137695,
                91.14705657958984
            ],
            "min" : [
                -22.746110916137695,
                -22.746110916137695,
                22.21973991394043
            ],
            "type" : "VEC3"
        },
        {
            "bufferView" : 10,
            "componentType" : 5126,
            "count" : 2282,
            "type" : "VEC3"
        },
        {
            "bufferView" : 11,
            "componentType" : 5123,
            "count" : 3456,
            "type" : "SCALAR"
        },
        {
            "bufferView" : 12,
            "componentType" : 5126,
            "count" : 172,
            "max" : [
                1,
                0.37761643528938293,
                1
            ],
            "min" : [
                -1,
                0,
                -1
            ],
            "type" : "VEC3"
        },
        {
            "bufferView" : 13,
            "componentType" : 5126,
            "count" : 172,
            "type" : "VEC3"
        },
        {
            "bufferView" : 14,
            "componentType" : 5126,
            "count" : 172,
            "type" : "VEC4"
        },
        {
            "bufferView" : 15,
            "componentType" : 5126,
            "count" : 172,
            "type" : "VEC2"
        },
        {
            "bufferView" : 16,
            "componentType" : 5123,
            "count" : 276,
            "type" : "SCALAR"
        }
    ],
    "bufferViews" : [
        {
            "buffer" : 0,
            "byteLength" : 171072,
            "byteOffset" : 0,
            "target" : 34962
        },
        {
            "buffer" : 0,
            "byteLength" : 171072,
            "byteOffset" : 171072,
            "target" : 34962
        },
        {
            "buffer" : 0,
            "byteLength" : 41472,
            "byteOffset" : 342144,
            "target" : 34963
        },
        {
            "buffer" : 0,
            "byteLength" : 20628,
            "byteOffset" : 383616,
            "target" : 34962
        },
        {
            "buffer" : 0,
            "byteLength" : 20628,
            "byteOffset" : 404244,
            "target" : 34962
        },
        {
            "buffer" : 0,
            "byteLength" : 3840,
            "byteOffset" : 424872,
            "target" : 34963
        },
        {
            "buffer" : 0,
            "byteLength" : 11856,
            "byteOffset" : 428712,
            "target" : 34962
        },
        {
            "buffer" : 0,
            "byteLength" : 11856,
            "byteOffset" : 440568,
            "target" : 34962
        },
        {
            "buffer" : 0,
            "byteLength" : 2880,
            "byteOffset" : 452424,
            "target" : 34963
        },
        {
            "buffer" : 0,
            "byteLength" : 27384,
            "byteOffset" : 455304,
            "target" : 34962
        },
        {
            "buffer" : 0,
            "byteLength" : 27384,
            "byteOffset" : 482688,
            "target" : 34962
        },
        {
            "buffer" : 0,
            "byteLength" : 6912,
            "byteOffset" : 510072,
            "target" : 34963
        },
        {
            "buffer" : 0,
            "byteLength" : 2064,
            "byteOffset" : 516984,
            "target" : 34962
        },
        {
            "buffer" : 0,
            "byteLength" : 2064,
            "byteOffset" : 519048,
            "target" : 34962
        },
        {
            "buffer" : 0,
            "byteLength" : 2752,
            "byteOffset" : 521112,
            "target" : 34962
        },
        {
            "buffer" : 0,
            "byteLength" : 1376,
            "byteOffset" : 523864,
            "target" : 34962
        },
        {
            "buffer" : 0,
            "byteLength" : 552,
            "byteOffset" : 525240,
            "target" : 34963
        }
    ],
    "buffers" : [
        {
            "byteLength" : 525792,
            "uri" : "data:application/octet-stream;base64,"
        }
    ]
}
