{
    "asset" : {
        "generator" : "Khronos glTF Blender I/O v3.3.27",
        "version" : "2.0"
    },
    "scene" : 0,
    "scenes" : [
        {
            "name" : "Scene",
            "nodes" : [
                0
            ]
        }
    ],
    "nodes" : [
        {
            "mesh" : 0,
            "name" : "Plane",
            "scale" : [
                0.001571304746903479,
                0.001571304746903479,
                0.001571304746903479
            ]
        }
    ],
    "materials" : [
        {
            "doubleSided" : true,
            "name" : "emas",
            "pbrMetallicRoughness" : {}
        },
        {
            "doubleSided" : true,
            "name" : "tembok_bawah",
            "pbrMetallicRoughness" : {}
        },
        {
            "doubleSided" : true,
            "name" : "tembok",
            "pbrMetallicRoughness" : {}
        }
    ],
    "meshes" : [
        {
            "name" : "Plane",
            "primitives" : [
                {
                    "attributes" : {
                        "POSITION" : 0,
                        "NORMAL" : 1,
                        "TEXCOORD_0" : 2
                    },
                    "indices" : 3,
                    "material" : 0
                },
                {
                    "attributes" : {
                        "POSITION" : 4,
                        "NORMAL" : 5,
                        "TEXCOORD_0" : 6
                    },
                    "indices" : 7,
                    "material" : 1
                },
                {
                    "attributes" : {
                        "POSITION" : 8,
                        "NORMAL" : 9,
                        "TEXCOORD_0" : 10
                    },
                    "indices" : 11,
                    "material" : 2
                }
            ]
        }
    ],
    "accessors" : [
        {
            "bufferView" : 0,
            "componentType" : 5126,
            "count" : 14482,
            "max" : [
                1,
                3.9598641395568848,
                1
            ],
            "min" : [
                -1,
                0,
                -1
            ],
            "type" : "VEC3"
        },
        {
            "bufferView" : 1,
            "componentType" : 5126,
            "count" : 14482,
            "type" : "VEC3"
        },
        {
            "bufferView" : 2,
            "componentType" : 5126,
            "count" : 14482,
            "type" : "VEC2"
        },
        {
            "bufferView" : 3,
            "componentType" : 5123,
            "count" : 21012,
            "type" : "SCALAR"
        },
        {
            "bufferView" : 4,
            "componentType" : 5126,
            "count" : 1804,
            "max" : [
                0.7606958746910095,
                0.8234789967536926,
                0.76069575548172
            ],
            "min" : [
                -0.7606958746910095,
                0.37761643528938293,
                -0.7606959939002991
            ],
            "type" : "VEC3"
        },
        {
            "bufferView" : 5,
            "componentType" : 5126,
            "count" : 1804,
            "type" : "VEC3"
        },
        {
            "bufferView" : 6,
            "componentType" : 5126,
            "count" : 1804,
            "type" : "VEC2"
        },
        {
            "bufferView" : 7,
            "componentType" : 5123,
            "count" : 1920,
            "type" : "SCALAR"
        },
        {
            "bufferView" : 8,
            "componentType" : 5126,
            "count" : 4591,
            "max" : [
                0.7716569900512695,
                3.418489933013916,
                0.7716565728187561
            ],
            "min" : [
                -0.7716569900512695,
                0.8234787583351135,
                -0.7716571092605591
            ],
            "type" : "VEC3"
        },
        {
            "bufferView" : 9,
            "componentType" : 5126,
            "count" : 4591,
            "type" : "VEC3"
        },
        {
            "bufferView" : 10,
            "componentType" : 5126,
            "count" : 4591,
            "type" : "VEC2"
        },
        {
            "bufferView" : 11,
            "componentType" : 5123,
            "count" : 4896,
            "type" : "SCALAR"
        }
    ],
    "bufferViews" : [
        {
            "buffer" : 0,
            "byteLength" : 173784,
            "byteOffset" : 0,
            "target" : 34962
        },
        {
            "buffer" : 0,
            "byteLength" : 173784,
            "byteOffset" : 173784,
            "target" : 34962
        },
        {
            "buffer" : 0,
            "byteLength" : 115856,
            "byteOffset" : 347568,
            "target" : 34962
        },
        {
            "buffer" : 0,
            "byteLength" : 42024,
            "byteOffset" : 463424,
            "target" : 34963
        },
        {
            "buffer" : 0,
            "byteLength" : 21648,
            "byteOffset" : 505448,
            "target" : 34962
        },
        {
            "buffer" : 0,
            "byteLength" : 21648,
            "byteOffset" : 527096,
            "target" : 34962
        },
        {
            "buffer" : 0,
            "byteLength" : 14432,
            "byteOffset" : 548744,
            "target" : 34962
        },
        {
            "buffer" : 0,
            "byteLength" : 3840,
            "byteOffset" : 563176,
            "target" : 34963
        },
        {
            "buffer" : 0,
            "byteLength" : 55092,
            "byteOffset" : 567016,
            "target" : 34962
        },
        {
            "buffer" : 0,
            "byteLength" : 55092,
            "byteOffset" : 622108,
            "target" : 34962
        },
        {
            "buffer" : 0,
            "byteLength" : 36728,
            "byteOffset" : 677200,
            "target" : 34962
        },
        {
            "buffer" : 0,
            "byteLength" : 9792,
            "byteOffset" : 713928,
            "target" : 34963
        }
    ],
    "buffers" : [
        {
            "byteLength" : 723720,
            "uri" : "data:application/octet-stream;base64,"
        }
    ]
}
